<mxfile host="app.diagrams.net" agent="Mozilla/5.0 (Windows NT 10.0; Win64; x64) AppleWebKit/537.36 (KHTML, like Gecko) Chrome/129.0.0.0 Safari/537.36" version="24.7.17">
  <diagram name="Seite-1" id="pn2n6Y_2jsVSf3szfr6r">
    <mxGraphModel dx="989" dy="532" grid="1" gridSize="10" guides="1" tooltips="1" connect="1" arrows="1" fold="1" page="1" pageScale="1" pageWidth="1169" pageHeight="827" math="0" shadow="0">
      <root>
        <mxCell id="0" />
        <mxCell id="1" parent="0" />
        <mxCell id="St1RWIUJfswtCtU9OaeS-1" value="System" style="rounded=0;whiteSpace=wrap;html=1;fillColor=#f5f5f5;fontColor=#333333;strokeColor=#666666;" vertex="1" parent="1">
          <mxGeometry x="240" y="120" width="370" height="30" as="geometry" />
        </mxCell>
        <mxCell id="St1RWIUJfswtCtU9OaeS-2" value="Komponent-Typ 1" style="rounded=0;whiteSpace=wrap;html=1;fillColor=#dae8fc;strokeColor=#6c8ebf;" vertex="1" parent="1">
          <mxGeometry x="240" y="170" width="110" height="30" as="geometry" />
        </mxCell>
        <mxCell id="St1RWIUJfswtCtU9OaeS-23" style="edgeStyle=orthogonalEdgeStyle;rounded=0;orthogonalLoop=1;jettySize=auto;html=1;entryX=0.5;entryY=1;entryDx=0;entryDy=0;endArrow=none;endFill=0;" edge="1" parent="1" source="St1RWIUJfswtCtU9OaeS-4" target="St1RWIUJfswtCtU9OaeS-1">
          <mxGeometry relative="1" as="geometry" />
        </mxCell>
        <mxCell id="St1RWIUJfswtCtU9OaeS-4" value="Komponent-Typ 2" style="rounded=0;whiteSpace=wrap;html=1;fillColor=#dae8fc;strokeColor=#6c8ebf;" vertex="1" parent="1">
          <mxGeometry x="370" y="170" width="110" height="30" as="geometry" />
        </mxCell>
        <mxCell id="St1RWIUJfswtCtU9OaeS-5" value="Komponent-Typ 3" style="rounded=0;whiteSpace=wrap;html=1;fillColor=#dae8fc;strokeColor=#6c8ebf;" vertex="1" parent="1">
          <mxGeometry x="499" y="170" width="110" height="30" as="geometry" />
        </mxCell>
        <mxCell id="St1RWIUJfswtCtU9OaeS-38" style="edgeStyle=orthogonalEdgeStyle;rounded=0;orthogonalLoop=1;jettySize=auto;html=1;entryX=0.25;entryY=0;entryDx=0;entryDy=0;endArrow=none;endFill=0;" edge="1" parent="1" source="St1RWIUJfswtCtU9OaeS-7" target="St1RWIUJfswtCtU9OaeS-19">
          <mxGeometry relative="1" as="geometry" />
        </mxCell>
        <mxCell id="St1RWIUJfswtCtU9OaeS-7" value="S1" style="rounded=0;whiteSpace=wrap;html=1;fillColor=#FFE0BD;strokeColor=#d79b00;" vertex="1" parent="1">
          <mxGeometry x="240" y="220" width="30" height="30" as="geometry" />
        </mxCell>
        <mxCell id="St1RWIUJfswtCtU9OaeS-28" style="edgeStyle=orthogonalEdgeStyle;rounded=0;orthogonalLoop=1;jettySize=auto;html=1;entryX=0.5;entryY=1;entryDx=0;entryDy=0;endArrow=none;endFill=0;" edge="1" parent="1" source="St1RWIUJfswtCtU9OaeS-8" target="St1RWIUJfswtCtU9OaeS-2">
          <mxGeometry relative="1" as="geometry" />
        </mxCell>
        <mxCell id="St1RWIUJfswtCtU9OaeS-39" style="edgeStyle=orthogonalEdgeStyle;rounded=0;orthogonalLoop=1;jettySize=auto;html=1;entryX=0.5;entryY=0;entryDx=0;entryDy=0;endArrow=none;endFill=0;" edge="1" parent="1" source="St1RWIUJfswtCtU9OaeS-8" target="St1RWIUJfswtCtU9OaeS-19">
          <mxGeometry relative="1" as="geometry" />
        </mxCell>
        <mxCell id="St1RWIUJfswtCtU9OaeS-8" value="S2" style="rounded=0;whiteSpace=wrap;html=1;fillColor=#FFE0BD;strokeColor=#d79b00;" vertex="1" parent="1">
          <mxGeometry x="280" y="220" width="30" height="30" as="geometry" />
        </mxCell>
        <mxCell id="St1RWIUJfswtCtU9OaeS-9" value="S3" style="rounded=0;whiteSpace=wrap;html=1;fillColor=#FFE0BD;strokeColor=#d79b00;" vertex="1" parent="1">
          <mxGeometry x="320" y="220" width="30" height="30" as="geometry" />
        </mxCell>
        <mxCell id="St1RWIUJfswtCtU9OaeS-42" style="edgeStyle=orthogonalEdgeStyle;rounded=0;orthogonalLoop=1;jettySize=auto;html=1;entryX=0.75;entryY=0;entryDx=0;entryDy=0;endArrow=none;endFill=0;" edge="1" parent="1" source="St1RWIUJfswtCtU9OaeS-13" target="St1RWIUJfswtCtU9OaeS-19">
          <mxGeometry relative="1" as="geometry" />
        </mxCell>
        <mxCell id="St1RWIUJfswtCtU9OaeS-13" value="S1" style="rounded=0;whiteSpace=wrap;html=1;fillColor=#FFE0BD;strokeColor=#d79b00;" vertex="1" parent="1">
          <mxGeometry x="370" y="220" width="30" height="30" as="geometry" />
        </mxCell>
        <mxCell id="St1RWIUJfswtCtU9OaeS-30" style="edgeStyle=orthogonalEdgeStyle;rounded=0;orthogonalLoop=1;jettySize=auto;html=1;entryX=0.5;entryY=1;entryDx=0;entryDy=0;endArrow=none;endFill=0;" edge="1" parent="1" source="St1RWIUJfswtCtU9OaeS-14" target="St1RWIUJfswtCtU9OaeS-4">
          <mxGeometry relative="1" as="geometry" />
        </mxCell>
        <mxCell id="St1RWIUJfswtCtU9OaeS-41" style="edgeStyle=orthogonalEdgeStyle;rounded=0;orthogonalLoop=1;jettySize=auto;html=1;entryX=0.25;entryY=0;entryDx=0;entryDy=0;endArrow=none;endFill=0;" edge="1" parent="1" source="St1RWIUJfswtCtU9OaeS-14" target="St1RWIUJfswtCtU9OaeS-20">
          <mxGeometry relative="1" as="geometry" />
        </mxCell>
        <mxCell id="St1RWIUJfswtCtU9OaeS-14" value="S2" style="rounded=0;whiteSpace=wrap;html=1;fillColor=#FFE0BD;strokeColor=#d79b00;" vertex="1" parent="1">
          <mxGeometry x="410" y="220" width="30" height="30" as="geometry" />
        </mxCell>
        <mxCell id="St1RWIUJfswtCtU9OaeS-15" value="S3" style="rounded=0;whiteSpace=wrap;html=1;fillColor=#FFE0BD;strokeColor=#d79b00;" vertex="1" parent="1">
          <mxGeometry x="450" y="220" width="30" height="30" as="geometry" />
        </mxCell>
        <mxCell id="St1RWIUJfswtCtU9OaeS-16" value="S1" style="rounded=0;whiteSpace=wrap;html=1;fillColor=#FFE0BD;strokeColor=#d79b00;" vertex="1" parent="1">
          <mxGeometry x="499" y="220" width="30" height="30" as="geometry" />
        </mxCell>
        <mxCell id="St1RWIUJfswtCtU9OaeS-31" style="edgeStyle=orthogonalEdgeStyle;rounded=0;orthogonalLoop=1;jettySize=auto;html=1;entryX=0.5;entryY=1;entryDx=0;entryDy=0;endArrow=none;endFill=0;" edge="1" parent="1" source="St1RWIUJfswtCtU9OaeS-17" target="St1RWIUJfswtCtU9OaeS-5">
          <mxGeometry relative="1" as="geometry" />
        </mxCell>
        <mxCell id="St1RWIUJfswtCtU9OaeS-44" style="edgeStyle=orthogonalEdgeStyle;rounded=0;orthogonalLoop=1;jettySize=auto;html=1;entryX=0.5;entryY=0;entryDx=0;entryDy=0;endArrow=none;endFill=0;" edge="1" parent="1" source="St1RWIUJfswtCtU9OaeS-17" target="St1RWIUJfswtCtU9OaeS-20">
          <mxGeometry relative="1" as="geometry" />
        </mxCell>
        <mxCell id="St1RWIUJfswtCtU9OaeS-17" value="S2" style="rounded=0;whiteSpace=wrap;html=1;fillColor=#FFE0BD;strokeColor=#d79b00;" vertex="1" parent="1">
          <mxGeometry x="539" y="220" width="30" height="30" as="geometry" />
        </mxCell>
        <mxCell id="St1RWIUJfswtCtU9OaeS-45" style="edgeStyle=orthogonalEdgeStyle;rounded=0;orthogonalLoop=1;jettySize=auto;html=1;entryX=0.75;entryY=0;entryDx=0;entryDy=0;endArrow=none;endFill=0;" edge="1" parent="1" source="St1RWIUJfswtCtU9OaeS-18" target="St1RWIUJfswtCtU9OaeS-20">
          <mxGeometry relative="1" as="geometry" />
        </mxCell>
        <mxCell id="St1RWIUJfswtCtU9OaeS-18" value="S3" style="rounded=0;whiteSpace=wrap;html=1;fillColor=#FFE0BD;strokeColor=#d79b00;" vertex="1" parent="1">
          <mxGeometry x="579" y="220" width="30" height="30" as="geometry" />
        </mxCell>
        <mxCell id="St1RWIUJfswtCtU9OaeS-19" value="Sequenz 1" style="rounded=0;whiteSpace=wrap;html=1;fillColor=#ffe6cc;strokeColor=#d79b00;" vertex="1" parent="1">
          <mxGeometry x="240" y="290" width="170" height="30" as="geometry" />
        </mxCell>
        <mxCell id="St1RWIUJfswtCtU9OaeS-47" style="edgeStyle=orthogonalEdgeStyle;rounded=0;orthogonalLoop=1;jettySize=auto;html=1;endArrow=none;endFill=0;" edge="1" parent="1" source="St1RWIUJfswtCtU9OaeS-20" target="St1RWIUJfswtCtU9OaeS-21">
          <mxGeometry relative="1" as="geometry" />
        </mxCell>
        <mxCell id="St1RWIUJfswtCtU9OaeS-20" value="Sequenz 2" style="rounded=0;whiteSpace=wrap;html=1;fillColor=#ffe6cc;strokeColor=#d79b00;" vertex="1" parent="1">
          <mxGeometry x="430" y="290" width="180" height="30" as="geometry" />
        </mxCell>
        <mxCell id="St1RWIUJfswtCtU9OaeS-24" style="edgeStyle=orthogonalEdgeStyle;rounded=0;orthogonalLoop=1;jettySize=auto;html=1;entryX=0.842;entryY=0.995;entryDx=0;entryDy=0;entryPerimeter=0;endArrow=none;endFill=0;" edge="1" parent="1" source="St1RWIUJfswtCtU9OaeS-5" target="St1RWIUJfswtCtU9OaeS-1">
          <mxGeometry relative="1" as="geometry" />
        </mxCell>
        <mxCell id="St1RWIUJfswtCtU9OaeS-27" style="edgeStyle=orthogonalEdgeStyle;rounded=0;orthogonalLoop=1;jettySize=auto;html=1;entryX=0.157;entryY=1;entryDx=0;entryDy=0;entryPerimeter=0;endArrow=none;endFill=0;" edge="1" parent="1" source="St1RWIUJfswtCtU9OaeS-2" target="St1RWIUJfswtCtU9OaeS-1">
          <mxGeometry relative="1" as="geometry" />
        </mxCell>
        <mxCell id="St1RWIUJfswtCtU9OaeS-32" style="edgeStyle=orthogonalEdgeStyle;rounded=0;orthogonalLoop=1;jettySize=auto;html=1;entryX=0.136;entryY=1;entryDx=0;entryDy=0;entryPerimeter=0;endArrow=none;endFill=0;" edge="1" parent="1" source="St1RWIUJfswtCtU9OaeS-7" target="St1RWIUJfswtCtU9OaeS-2">
          <mxGeometry relative="1" as="geometry" />
        </mxCell>
        <mxCell id="St1RWIUJfswtCtU9OaeS-33" style="edgeStyle=orthogonalEdgeStyle;rounded=0;orthogonalLoop=1;jettySize=auto;html=1;entryX=0.864;entryY=1;entryDx=0;entryDy=0;entryPerimeter=0;endArrow=none;endFill=0;" edge="1" parent="1" source="St1RWIUJfswtCtU9OaeS-9" target="St1RWIUJfswtCtU9OaeS-2">
          <mxGeometry relative="1" as="geometry" />
        </mxCell>
        <mxCell id="St1RWIUJfswtCtU9OaeS-34" style="edgeStyle=orthogonalEdgeStyle;rounded=0;orthogonalLoop=1;jettySize=auto;html=1;entryX=0.136;entryY=1;entryDx=0;entryDy=0;entryPerimeter=0;endArrow=none;endFill=0;" edge="1" parent="1" source="St1RWIUJfswtCtU9OaeS-13" target="St1RWIUJfswtCtU9OaeS-4">
          <mxGeometry relative="1" as="geometry" />
        </mxCell>
        <mxCell id="St1RWIUJfswtCtU9OaeS-35" style="edgeStyle=orthogonalEdgeStyle;rounded=0;orthogonalLoop=1;jettySize=auto;html=1;entryX=0.864;entryY=1;entryDx=0;entryDy=0;entryPerimeter=0;endArrow=none;endFill=0;" edge="1" parent="1" source="St1RWIUJfswtCtU9OaeS-15" target="St1RWIUJfswtCtU9OaeS-4">
          <mxGeometry relative="1" as="geometry" />
        </mxCell>
        <mxCell id="St1RWIUJfswtCtU9OaeS-36" style="edgeStyle=orthogonalEdgeStyle;rounded=0;orthogonalLoop=1;jettySize=auto;html=1;entryX=0.136;entryY=1;entryDx=0;entryDy=0;entryPerimeter=0;endArrow=none;endFill=0;" edge="1" parent="1" source="St1RWIUJfswtCtU9OaeS-16" target="St1RWIUJfswtCtU9OaeS-5">
          <mxGeometry relative="1" as="geometry" />
        </mxCell>
        <mxCell id="St1RWIUJfswtCtU9OaeS-37" style="edgeStyle=orthogonalEdgeStyle;rounded=0;orthogonalLoop=1;jettySize=auto;html=1;entryX=0.864;entryY=1;entryDx=0;entryDy=0;entryPerimeter=0;endArrow=none;endFill=0;" edge="1" parent="1" source="St1RWIUJfswtCtU9OaeS-18" target="St1RWIUJfswtCtU9OaeS-5">
          <mxGeometry relative="1" as="geometry" />
        </mxCell>
        <mxCell id="St1RWIUJfswtCtU9OaeS-46" style="edgeStyle=orthogonalEdgeStyle;rounded=0;orthogonalLoop=1;jettySize=auto;html=1;entryX=0.238;entryY=0.09;entryDx=0;entryDy=0;entryPerimeter=0;endArrow=none;endFill=0;" edge="1" parent="1" source="St1RWIUJfswtCtU9OaeS-19" target="St1RWIUJfswtCtU9OaeS-21">
          <mxGeometry relative="1" as="geometry" />
        </mxCell>
        <mxCell id="St1RWIUJfswtCtU9OaeS-21" value="Arbeitsplan" style="rounded=0;whiteSpace=wrap;html=1;fillColor=#fff2cc;strokeColor=#d6b656;" vertex="1" parent="1">
          <mxGeometry x="240" y="340" width="370" height="30" as="geometry" />
        </mxCell>
        <mxCell id="St1RWIUJfswtCtU9OaeS-48" value="" style="rounded=0;whiteSpace=wrap;html=1;fillColor=none;strokeColor=#A1A1A1;dashed=1;" vertex="1" parent="1">
          <mxGeometry x="230" y="160" width="130" height="100" as="geometry" />
        </mxCell>
        <mxCell id="St1RWIUJfswtCtU9OaeS-49" value="" style="rounded=0;whiteSpace=wrap;html=1;fillColor=none;strokeColor=#A1A1A1;dashed=1;" vertex="1" parent="1">
          <mxGeometry x="360" y="160" width="130" height="100" as="geometry" />
        </mxCell>
        <mxCell id="St1RWIUJfswtCtU9OaeS-50" value="" style="rounded=0;whiteSpace=wrap;html=1;fillColor=none;strokeColor=#A1A1A1;dashed=1;" vertex="1" parent="1">
          <mxGeometry x="490" y="160" width="130" height="100" as="geometry" />
        </mxCell>
      </root>
    </mxGraphModel>
  </diagram>
</mxfile>
